<svg width="164" height="19" fill="none" xmlns="http://www.w3.org/2000/svg"><path d="M5.664 15.192 4.44 18H.36L7.8 1.2h4.296l7.44 16.8h-4.08l-1.224-2.808H5.664Zm7.032-3.6L9.96 5.28l-2.736 6.312h5.472Zm12.482-4.728V18h-3.84V1.2h3.84l9.12 11.136V1.2h3.84V18h-3.84l-9.12-11.136ZM44.866 18h-3.84V1.2h3.84V18Zm6.727-12.672V18h-3.84V1.2h6.264l4.535 12.48L63.041 1.2h6.288V18h-3.84V5.328L60.689 18h-4.297l-4.8-12.672ZM86.31 14.4V18H72.198V1.2H86.31v3.6H76.038v3.12h9.072v3.36h-9.072v3.12H86.31Zm10.4-1.92L92.462 18h-4.704l6.624-8.568L88.046 1.2h4.656l4.008 5.184 4.008-5.184h4.656l-6.336 8.232L105.662 18h-4.704l-4.248-5.52ZM107.86 3c1.368-1.368 3.552-2.04 6.576-2.04 3.024 0 5.232.672 6.6 2.04 1.368 1.368 2.04 3.576 2.04 6.6 0 3.024-.672 5.208-2.04 6.576-1.368 1.368-3.576 2.064-6.6 2.064-3.024 0-5.208-.696-6.576-2.064-1.368-1.368-2.064-3.552-2.064-6.576 0-3.024.696-5.232 2.064-6.6Zm2.928 2.76c-.768.792-1.152 2.088-1.152 3.84 0 1.752.384 3.048 1.152 3.84.744.792 1.968 1.2 3.648 1.2 1.68 0 2.904-.408 3.672-1.2.744-.792 1.128-2.088 1.128-3.84 0-1.752-.384-3.048-1.128-3.84-.768-.792-1.992-1.2-3.672-1.2-1.68 0-2.904.408-3.648 1.2Zm18.523 1.104V18h-3.84V1.2h3.84l9.12 11.136V1.2h3.84V18h-3.84l-9.12-11.136Zm20.072 8.328L148.159 18h-4.08l7.44-16.8h4.296l7.44 16.8h-4.08l-1.224-2.808h-8.568Zm7.032-3.6-2.736-6.312-2.736 6.312h5.472Z" fill="#F90"/></svg>